<?xml version="1.0" encoding="utf-8"?>
<!-- Generator: Adobe Illustrator 22.0.1, SVG Export Plug-In . SVG Version: 6.00 Build 0)  -->
<svg version="1.1" id="Layer_1" xmlns="http://www.w3.org/2000/svg" xmlns:xlink="http://www.w3.org/1999/xlink" x="0px" y="0px"
	 viewBox="0 0 286.1 286.1" style="enable-background:new 0 0 286.1 286.1;" xml:space="preserve">
<style type="text/css">
	.st0{fill:#D82137;}
</style>
<g>
	<path class="st0" d="M143,0C64,0,0,64,0,143s64,143,143,143s143-64,143-143C286.1,64,222,0,143,0z M145.2,272.3
		c-72.5,0-134.5-56.8-134.5-129.3S72.7,9.9,145.2,9.9s130.1,63.3,130.1,135.8S217.7,272.3,145.2,272.3z M143,62.7
		c-10.2,0-18,5.3-18,14v79.2c0,8.6,7.7,14,18,14c10,0,18-5.6,18-14V76.7C161,68.3,153,62.7,143,62.7z M143,187.7
		c-9.8,0-17.9,8-17.9,17.9c0,9.8,8,17.8,17.9,17.8s17.8-8,17.8-17.8C160.9,195.7,152.9,187.7,143,187.7z"/>
</g>
</svg>
