<svg height="480pt" viewBox="0 -56 480 480" width="480pt" xmlns="http://www.w3.org/2000/svg" xmlns:xlink="http://www.w3.org/1999/xlink"><linearGradient id="a"><stop offset="0" stop-color="#e93e3a"/><stop offset=".357" stop-color="#ed683c"/><stop offset=".703" stop-color="#f3903f"/><stop offset="1" stop-color="#fdc70c"/></linearGradient><linearGradient id="b" gradientUnits="userSpaceOnUse" x1="240" x2="240" xlink:href="#a" y1="359.944" y2="-65.8"/><linearGradient id="c" gradientUnits="userSpaceOnUse" x1="424" x2="424" xlink:href="#a" y1="359.944" y2="-65.8"/><path d="m184 96h280c8.835938 0 16-7.164062 16-16v-64c0-8.835938-7.164062-16-16-16h-280c-101.621094 0-184 82.378906-184 184s82.378906 184 184 184h280c8.835938 0 16-7.164062 16-16v-64c0-8.835938-7.164062-16-16-16h-277.191406c-46.007813.449219-84.96875-33.816406-90.402344-79.503906-2.488281-24.746094 5.707031-49.375 22.523438-67.695313 16.679687-18.316406 40.296874-28.769531 65.070312-28.800781zm280-16h-80v-64h80zm-96-64v64h-16v-64zm96 336h-80v-64h80zm-96-64v64h-16v-64zm-287.527344-94c6.269532 53.875 52.097656 94.386719 106.335938 94h149.191406v64h-152c-92.785156 0-168-75.214844-168-168s75.214844-168 168-168h152v64h-152c-29.277344.046875-57.183594 12.402344-76.894531 34.046875-19.867188 21.640625-29.554688 50.726563-26.632813 79.953125zm0 0" fill="url(#b)"/><g fill="url(#c)"><path d="m408 56h8v8c0 4.417969 3.582031 8 8 8s8-3.582031 8-8v-8h8c4.417969 0 8-3.582031 8-8s-3.582031-8-8-8h-8v-8c0-4.417969-3.582031-8-8-8s-8 3.582031-8 8v8h-8c-4.417969 0-8 3.582031-8 8s3.582031 8 8 8zm0 0"/><path d="m408 328h32c4.417969 0 8-3.582031 8-8s-3.582031-8-8-8h-32c-4.417969 0-8 3.582031-8 8s3.582031 8 8 8zm0 0"/></g></svg>