<svg height="483pt" viewBox="0 0 483.50508 483" width="483pt" xmlns="http://www.w3.org/2000/svg" xmlns:xlink="http://www.w3.org/1999/xlink"><linearGradient id="a" gradientUnits="userSpaceOnUse" x1="242.082788" x2="242.082788" y1="479.930832" y2="-21.461168"><stop offset="0" stop-color="#006df0"/><stop offset="1" stop-color="#00e7f0"/></linearGradient><path d="m481.164062 251.5-56.570312-56.570312c-1.5-1.5-3.535156-2.34375-5.660156-2.34375-2.121094 0-4.160156.84375-5.660156 2.34375l-166.398438 166.402343c-34.371094 34.363281-90.089844 34.355469-124.453125-.011719-34.363281-34.371093-34.355469-90.089843.011719-124.453124l166.402344-166.398438c1.5-1.503906 2.34375-3.539062 2.34375-5.660156 0-2.125-.84375-4.160156-2.34375-5.660156l-56.578126-56.554688c-3.121093-3.121094-8.1875-3.121094-11.3125 0l-166.398437 166.402344c-46.871094 46.402344-65.320313 114.347656-48.355469 178.085937s66.746094 113.519531 130.488282 130.480469c63.738281 16.964844 131.679687-1.484375 178.082031-48.359375l166.402343-166.398437c3.121094-3.125 3.121094-8.191407 0-11.3125zm-254.5625-231.9375 45.257813 45.265625-41.945313 41.933594-45.253906-45.253907zm76.855469 398.335938c-65.609375 65.613281-171.988281 65.613281-237.597656 0-65.613281-65.609376-65.613281-171.988282 0-237.597657l107.488281-107.480469 45.253906 45.253907-107.480468 107.480469c-40.613282 40.613281-40.613282 106.464843 0 147.082031 40.617187 40.613281 106.464844 40.613281 147.082031 0l107.480469-107.480469 45.253906 45.253906zm118.792969-118.800782-45.253906-45.253906 41.933594-41.945312 45.265624 45.257812zm0 0" fill="url(#a)"/></svg>