<svg height="480pt" viewBox="0 -32 480 480" width="480pt" xmlns="http://www.w3.org/2000/svg" xmlns:xlink="http://www.w3.org/1999/xlink"><linearGradient id="a" gradientUnits="userSpaceOnUse" x1="240" x2="240" y1="430.128" y2="-16.632"><stop offset="0" stop-color="#006df0"/><stop offset="1" stop-color="#00e7f0"/></linearGradient><path d="m472 0h-464c-4.417969 0-8 3.582031-8 8v80c0 4.417969 3.582031 8 8 8h40v16c0 13.253906 10.746094 24 24 24v184.71875c-24.605469 4.160156-41.917969 26.476562-39.832031 51.34375 2.085937 24.867188 22.878906 43.984375 47.832031 43.984375s45.746094-19.117187 47.832031-43.984375c2.085938-24.867188-15.226562-47.183594-39.832031-51.34375v-184.71875c13.253906 0 24-10.746094 24-24v-16h32v16c0 13.253906 10.746094 24 24 24v184.71875c-24.605469 4.160156-41.917969 26.476562-39.832031 51.34375 2.085937 24.867188 22.878906 43.984375 47.832031 43.984375s45.746094-19.117187 47.832031-43.984375c2.085938-24.867188-15.226562-47.183594-39.832031-51.34375v-184.71875c13.253906 0 24-10.746094 24-24v-16h32v16c0 13.253906 10.746094 24 24 24v184.71875c-24.605469 4.160156-41.917969 26.476562-39.832031 51.34375 2.085937 24.867188 22.878906 43.984375 47.832031 43.984375s45.746094-19.117187 47.832031-43.984375c2.085938-24.867188-15.226562-47.183594-39.832031-51.34375v-184.71875c13.253906 0 24-10.746094 24-24v-16h32v16c0 13.253906 10.746094 24 24 24h.144531c-.050781.691406-.007812 1.390625.128907 2.070312l47.832031 178.488282c-20.484375 9.386718-31.671875 31.769531-26.886719 53.785156 4.785156 22.019531 24.25 37.738281 46.78125 37.777344 4.222656-.003906 8.425781-.5625 12.503906-1.65625 24.007813-6.535156 39.046875-30.328125 34.640625-54.816406-4.410156-24.488282-26.796875-41.550782-51.578125-39.304688l-47.292968-176.34375c13.148437-.148438 23.726562-10.851562 23.726562-24v-16h72c4.417969 0 8-3.582031 8-8v-80c0-4.417969-3.582031-8-8-8zm-360 368c0 17.671875-14.328125 32-32 32s-32-14.328125-32-32 14.328125-32 32-32 32 14.328125 32 32zm96 0c0 17.671875-14.328125 32-32 32s-32-14.328125-32-32 14.328125-32 32-32 32 14.328125 32 32zm96 0c0 17.671875-14.328125 32-32 32s-32-14.328125-32-32 14.328125-32 32-32 32 14.328125 32 32zm-208-256c0 4.417969-3.582031 8-8 8h-16c-4.417969 0-8-3.582031-8-8v-16h32zm96 0c0 4.417969-3.582031 8-8 8h-16c-4.417969 0-8-3.582031-8-8v-16h32zm96 0c0 4.417969-3.582031 8-8 8h-16c-4.417969 0-8-3.582031-8-8v-16h32zm156.046875 220.382812c13.222656 7.636719 19.207031 23.546876 14.296875 38.003907-4.90625 14.453125-19.34375 23.429687-34.480469 21.433593-15.136719-1.996093-26.753906-14.402343-27.75-29.636718-.996093-15.234375 8.90625-29.050782 23.65625-33 2.71875-.726563 5.519531-1.09375 8.335938-1.09375 5.597656 0 11.097656 1.484375 15.941406 4.292968zm-60.046875-220.382812c0 4.417969-3.582031 8-8 8h-16c-4.417969 0-8-3.582031-8-8v-16h32zm80-32h-448v-64h448zm0 0" fill="url(#a)"/></svg>