<?xml version="1.0" encoding="utf-8"?>
<!-- Generator: Adobe Illustrator 22.0.1, SVG Export Plug-In . SVG Version: 6.00 Build 0)  -->
<svg version="1.1" id="Capa_1" xmlns="http://www.w3.org/2000/svg" xmlns:xlink="http://www.w3.org/1999/xlink" x="0px" y="0px"
	 viewBox="0 0 611.9 611.9" style="enable-background:new 0 0 611.9 611.9;" xml:space="preserve">
<style type="text/css">
	.st0{fill:#067AB4;}
</style>
<g>
	<path class="st0" d="M559,210.6H422.8V100.1c0-28.7-23.6-52.3-52.3-52.3H52.3C23.6,47.8,0,71.4,0,100.1v191.5
		c0,28.7,23.6,52.3,52.3,52.3h31l39,52.3c2.2,3.7,6.6,5.2,11,5.2s8.1-2.2,11-5.2l39-52.3h5.9v110.5c0,28.7,23.6,52.3,52.3,52.3h187
		l39,52.3c2.2,3.7,6.6,5.2,11,5.2s8.1-2.2,11-5.2l39-52.3h31c28.7,0,52.3-23.6,52.3-52.3V262.9C612,234.1,588.5,210.6,559,210.6z
		 M176.1,316.6c-4.4,0-8.1,2.2-11,5.2l-32.4,42.7l-32.4-42.7c-2.2-3.7-6.6-5.2-11-5.2H50.9c-14,0-25-11-25-25V100.1
		c0-14,11-25,25-25H369c14,0,25,11,25,25v124.4v67c0,14-11,25-25,25H202.5L176.1,316.6L176.1,316.6z M584.8,454.3c0,14-11,25-25,25
		h-38.3c-4.4,0-8.1,2.2-11,5.2L478,527.2l-32.4-42.7c-2.2-3.7-6.6-5.2-11-5.2h-193c-14,0-25-11-25-25V343.9h153.9
		c10.3,0,19.9-2.9,28-8.1h103.1c7.4,0,13.2-5.9,13.2-13.2s-5.9-13.2-13.2-13.2h-81c2.2-5.2,2.9-11,2.9-17.7v-53.1h136.2
		c14,0,25,11,25,25L584.8,454.3L584.8,454.3z M514.1,398.4c0,7.4-5.9,13.2-13.2,13.2H300.5c-7.4,0-13.2-5.9-13.2-13.2
		s5.9-13.2,13.2-13.2h200.3C508.1,385.1,514.1,391,514.1,398.4z M310.1,248.8H110.5c-7.4,0-13.2-5.9-13.2-13.2s5.9-13.2,13.2-13.2
		h199.6c7.4,0,13.2,5.9,13.2,13.2C324,243,317.4,248.8,310.1,248.8z M97.2,159c0-7.4,5.9-13.2,13.2-13.2h120
		c7.4,0,13.2,5.9,13.2,13.2c0,7.4-5.9,13.2-13.2,13.2h-120C103.1,172.2,97.2,166.4,97.2,159z"/>
</g>
</svg>
