<svg height="458pt" viewBox="0 -31 458 458" width="458pt" xmlns="http://www.w3.org/2000/svg" xmlns:xlink="http://www.w3.org/1999/xlink"><linearGradient id="a"><stop offset="0" stop-color="#00efd1"/><stop offset="1" stop-color="#00acea"/></linearGradient><linearGradient id="b" gradientUnits="userSpaceOnUse" x1="229" x2="229" xlink:href="#a" y1="-48.121" y2="444.257"/><linearGradient id="c" gradientUnits="userSpaceOnUse" x1="226.5" x2="226.5" xlink:href="#a" y1="-48.121" y2="444.257"/><path d="m417.574219 0h-377.148438c-22.054687 0-40.425781 17.769531-40.425781 39.824219v262.96875c0 22.054687 18.371094 40.207031 40.425781 40.207031h118.574219v33h-46.457031c-5.523438 0-10 4.476562-10 10s4.476562 10 10 10h232.398437c5.523438 0 10-4.476562 10-10s-4.476562-10-10-10h-45.941406v-33h118.574219c22.054687 0 40.425781-18.152344 40.425781-40.207031v-262.96875c0-22.054688-18.371094-39.824219-40.425781-39.824219zm-138.574219 376h-100v-33h100zm158-73c0 11.046875-8.953125 20-20 20h-377c-11.046875 0-20-8.953125-20-20v-263c0-11.046875 8.953125-20 20-20h377c11.046875 0 20 8.953125 20 20zm0 0" fill="url(#b)"/><path d="m415 50c0-5.523438-4.476562-10-10-10h-357c-5.523438 0-10 4.476562-10 10v243c0 5.523438 4.476562 10 10 10h357c5.523438 0 10-4.476562 10-10zm-20 233h-337v-223h337zm0 0" fill="url(#c)"/><path d="m150.101562 209.867188c1.5625.902343 3.335938 1.375 5.140626 1.375 1.71875 0 3.410156-.4375 4.917968-1.269532l19.460938-11.113281c2.636718 10.722656 12.292968 18.230469 23.335937 18.140625h85.742188c13.226562 0 24.300781-10.273438 24.300781-23.5v-55c0-13.222656-11.078125-23.5-24.300781-23.5h-85.742188c-11.113281-.089844-20.8125 7.519531-23.359375 18.339844l-19.402344-10.964844c-3.140624-1.75-6.972656-1.734375-10.097656.042969-3.097656 1.753906-5.035156 5.007812-5.101562 8.5625v70.261719c.066406 3.574218 2.003906 6.847656 5.105468 8.625zm142.898438-15.847657c0 2.199219-1.78125 3.980469-3.980469 3.980469h-86.039062c-2.199219 0-3.980469-1.78125-3.980469-3.980469v-55.039062c0-2.199219 1.78125-3.980469 3.980469-3.980469h86.039062c2.199219 0 3.980469 1.78125 3.980469 3.980469zm-128-45.992187 14 7.632812v20.898438l-14 7.640625zm0 0" fill="url(#b)"/></svg>